<svg width="129" height="41" viewBox="0 0 129 41" fill="none" xmlns="http://www.w3.org/2000/svg">
<g filter="url(#filter0_d)">
<path d="M19.17 5.904V28.987H22.204V0.286999H17.735L13.184 23.206L8.469 0.286999H4V28.987H6.788V6.109L11.544 28.946H14.619L19.17 5.904Z" fill="white"/>
<path d="M28.6999 12.997V3.198H37.3099V0.286999H25.5019V28.987H37.3099V26.076H28.6999V15.867H35.7109V12.997H28.6999Z" fill="white"/>
<path d="M51.8794 3.198V28.987H55.0774V0.286999H43.3924L42.6133 22.017C42.5313 24.764 42.0804 26.117 39.4154 26.117V29.028H39.9484C44.3354 28.987 45.5653 26.404 45.7294 21.853L46.3854 3.198H51.8794Z" fill="white"/>
<path d="M58.2481 22.058C58.2481 26.404 60.4211 29.274 64.8081 29.274C69.2361 29.274 71.4091 26.404 71.4091 22.058V7.216C71.4091 2.829 69.2361 0 64.8081 0C60.4211 0 58.2481 2.829 58.2481 7.216V22.058ZM61.4051 7.052C61.4051 4.469 62.5121 2.911 64.8081 2.911C67.1451 2.911 68.2111 4.469 68.2111 7.052V22.222C68.2111 24.846 67.1451 26.363 64.8081 26.363C62.5121 26.363 61.4051 24.846 61.4051 22.222V7.052Z" fill="white"/>
<path d="M91.6907 32.923V26.158H89.5177V0.286999H77.9967L76.8897 21.976C76.8077 23.739 76.6027 25.051 75.6187 26.158H73.7737V32.923H76.8487V28.987H88.5747V32.923H91.6907ZM80.9487 3.198H86.2787V26.158H78.6937C79.5957 25.215 79.8827 23.985 80.0057 21.935L80.9487 3.198Z" fill="white"/>
<path d="M105.149 6.15V28.987H108.019V0.286999H104.452L99.8602 13.776L97.3182 21.689V0.286999H94.4892V28.987H97.8102L102.033 15.744L105.149 6.15Z" fill="white"/>
<path d="M120.942 16.728V28.987H124.14V0.286999H117.744C113.234 0.286999 111.348 2.583 111.348 6.847V9.184C111.348 12.341 112.455 14.309 114.874 15.088C112.291 15.867 111.307 17.999 111.307 21.074V25.543C111.307 26.814 111.225 28.003 110.733 28.987H113.972C114.341 28.167 114.505 27.429 114.505 25.502V20.992C114.505 17.753 116.022 16.728 118.687 16.728H120.942ZM120.942 3.198V13.817H118.523C116.022 13.817 114.505 12.997 114.505 9.881V7.134C114.505 4.551 115.448 3.198 117.826 3.198H120.942Z" fill="white"/>
</g>
<defs>
<filter id="filter0_d" x="0" y="0" width="128.14" height="40.923" filterUnits="userSpaceOnUse" color-interpolation-filters="sRGB">
<feFlood flood-opacity="0" result="BackgroundImageFix"/>
<feColorMatrix in="SourceAlpha" type="matrix" values="0 0 0 0 0 0 0 0 0 0 0 0 0 0 0 0 0 0 127 0" result="hardAlpha"/>
<feOffset dy="4"/>
<feGaussianBlur stdDeviation="2"/>
<feComposite in2="hardAlpha" operator="out"/>
<feColorMatrix type="matrix" values="0 0 0 0 0 0 0 0 0 0 0 0 0 0 0 0 0 0 0.25 0"/>
<feBlend mode="normal" in2="BackgroundImageFix" result="effect1_dropShadow"/>
<feBlend mode="normal" in="SourceGraphic" in2="effect1_dropShadow" result="shape"/>
</filter>
</defs>
</svg>
